<svg width="46" height="34" viewBox="0 0 46 34" fill="none" xmlns="http://www.w3.org/2000/svg">
<path d="M33.3993 16.1487C37.5376 16.1487 40.8923 12.7575 40.8923 8.57433C40.8923 4.39114 37.5376 1 33.3993 1C29.261 1 25.9062 4.39114 25.9062 8.57433C25.9062 12.7575 29.261 16.1487 33.3993 16.1487Z" stroke="#F3FEFF" stroke-width="2" stroke-miterlimit="10" stroke-linecap="round"/>
<path d="M40.1403 13.4453C42.86 15.2549 44.6362 18.1418 44.6362 21.4511V28.1165C44.6362 29.0255 44.0367 29.6314 43.1376 29.6314H29.4297" stroke="#F3FEFF" stroke-width="2" stroke-miterlimit="10" stroke-linecap="round"/>
<path d="M13.5621 17.9309C18.1872 17.9309 21.9367 14.1408 21.9367 9.46543C21.9367 4.7901 18.1872 1 13.5621 1C8.93693 1 5.1875 4.7901 5.1875 9.46543C5.1875 14.1408 8.93693 17.9309 13.5621 17.9309Z" stroke="#F3FEFF" stroke-width="2" stroke-miterlimit="10" stroke-linecap="round"/>
<path d="M4.18234 16.4083C2.17244 18.44 1 20.9796 1 23.8578V31.3074C1 32.3233 1.66997 33.0005 2.67492 33.0005H24.4488C25.4538 33.0005 26.1237 32.3233 26.1237 31.3074V23.8578C26.1237 20.1592 24.1386 16.9327 21.099 14.9102" stroke="#F3FEFF" stroke-width="2" stroke-miterlimit="10" stroke-linecap="round"/>
</svg>
