<svg width="35" height="35" viewBox="0 0 35 35" fill="none" xmlns="http://www.w3.org/2000/svg">
<path d="M13.5621 17.9309C18.1872 17.9309 21.9367 14.1408 21.9367 9.46543C21.9367 4.7901 18.1872 1 13.5621 1C8.93693 1 5.1875 4.7901 5.1875 9.46543C5.1875 14.1408 8.93693 17.9309 13.5621 17.9309Z" stroke="#E6E0D2" stroke-width="2" stroke-miterlimit="10" stroke-linecap="round"/>
<path d="M4.18234 16.4083C2.17244 18.44 1 20.9796 1 23.8578V31.3074C1 32.3233 1.66997 33.0005 2.67492 33.0005H18M21.099 14.9102C22.1829 15.6314 22.7265 16.0057 23.5 17" stroke="#E6E0D2" stroke-width="2" stroke-miterlimit="10" stroke-linecap="round"/>
<path d="M25.5 33.75C30.0563 33.75 33.75 30.0563 33.75 25.5C33.75 20.9437 30.0563 17.25 25.5 17.25C20.9437 17.25 17.25 20.9437 17.25 25.5C17.25 30.0563 20.9437 33.75 25.5 33.75Z" stroke="#E6E0D2" stroke-width="1.5" stroke-miterlimit="10" stroke-linecap="round"/>
<path d="M25.5 22V29" stroke="#E6E0D2" stroke-width="1.5" stroke-linecap="round"/>
<path d="M22 25.5H29" stroke="#E6E0D2" stroke-width="1.5" stroke-linecap="round"/>
</svg>
