<svg width="24" height="25" viewBox="0 0 24 25" fill="none" xmlns="http://www.w3.org/2000/svg">
<path d="M16.8833 10.3642L15.2535 11.994C17.5319 14.2724 22.1831 18.9236 22.5603 19.3008C23.0317 19.7722 23.0432 21.6463 22.1119 22.5776C21.1805 23.5089 19.5421 23.7331 18.835 23.026C18.2693 22.4603 13.266 16.8666 12.4017 16.0024C10.6943 17.7098 6.03351 21.214 5.47473 21.7728C4.91594 22.3315 3.60635 22.6983 2.42784 21.5198C1.48503 20.577 1.94494 19.1743 2.4106 18.7086L8.3816 12.2003C6.41646 10.08 2.24158 6.43257 1.86446 6.05544C1.39305 5.58404 1.14873 3.94275 2.31287 2.77861C3.24418 1.8473 5.1183 1.85879 5.5897 2.3302L8.88953 5.63003L12.1894 8.92986L18.7085 2.41068C19.018 1.94407 20.1998 1.108 21.5197 2.42793C22.8397 3.74786 22.1607 5.08676 21.7727 5.47481L19.1429 8.10461" stroke="#EFEBE1" stroke-width="2" stroke-linecap="round" stroke-linejoin="round"/>
</svg>
