<svg width="36" height="40" viewBox="0 0 36 40" fill="none" xmlns="http://www.w3.org/2000/svg">
<path d="M23.2208 22.3339V38.0004C23.2208 38.5527 22.7731 39.0004 22.2208 39.0004H15.332C14.7797 39.0004 14.332 38.5527 14.332 38.0004V13.334C14.332 12.7817 14.7797 12.334 15.332 12.334H22.2208C22.7731 12.334 23.2208 12.7817 23.2208 13.334V16.7784" stroke="#E6E0D2" stroke-width="2" stroke-linecap="round"/>
<path d="M9.8888 9.55545V37.9996C9.8888 38.5519 9.44108 38.9996 8.8888 38.9996H2C1.44772 38.9996 1 38.5519 1 37.9996V2C1 1.44771 1.44772 1 2 1H8.8888C9.44108 1 9.8888 1.44772 9.8888 2V5.6666" stroke="#E6E0D2" stroke-width="2" stroke-linecap="round"/>
<path d="M34.3346 34.2775V37.9997C34.3346 38.552 33.8869 38.9997 33.3346 38.9997H28.668C28.1157 38.9997 27.668 38.552 27.668 37.9997V28.8887C27.668 28.3364 28.1157 27.8887 28.668 27.8887H33.3346C33.8869 27.8887 34.3346 28.3364 34.3346 28.8887V29.7405" stroke="#E6E0D2" stroke-width="2" stroke-linecap="round"/>
</svg>
