<svg width="36" height="36" viewBox="0 0 36 36" fill="none" xmlns="http://www.w3.org/2000/svg">
<path d="M12.5898 13.6891C12.5898 10.7383 14.9717 8.35645 17.9224 8.35645C20.8732 8.35645 23.2551 10.7383 23.2551 13.6891C23.2551 16.6398 20.8732 19.0217 17.9224 19.0217" stroke="#E6E0D2" stroke-width="2" stroke-miterlimit="10" stroke-linecap="round"/>
<path d="M17.9258 22.5756V19.0205" stroke="#E6E0D2" stroke-width="2" stroke-miterlimit="10" stroke-linecap="round"/>
<circle cx="19.1281" cy="28.8615" r="1.20618" fill="#D9D9D9"/>
<path d="M33.754 11.6116C35.2757 15.3642 35.4079 19.5368 34.1268 23.3782C32.8457 27.2197 30.2354 30.4777 26.7659 32.5657C23.2963 34.6537 19.1953 35.4347 15.2011 34.768C11.207 34.1013 7.58195 32.0308 4.97863 28.929C2.37531 25.8273 0.964686 21.8982 1.00067 17.8489C1.03666 13.7997 2.51689 9.89622 5.17493 6.84126C7.83296 3.7863 11.4942 1.78049 15.4996 1.18489C19.505 0.589287 23.5914 1.44301 27.0234 3.59239" stroke="#E6E0D2" stroke-width="2" stroke-linecap="round"/>
</svg>
