<svg width="42" height="53" viewBox="0 0 42 53" fill="none" xmlns="http://www.w3.org/2000/svg">
<path d="M36.2152 17.6667H33.6773V12.619C33.6773 5.65333 27.9924 0 20.9878 0C15.2268 0 8.57133 5.6586 8.68281 12.2135C8.68281 12.2135 8.57062 17.5175 8.57062 17.7669L12.9333 17.6667C12.9333 17.1293 12.934 12.2136 12.934 12.2136C12.934 8.16224 16.681 4.36998 21.0437 4.36998C25.3835 4.36998 28.8553 8.16224 28.8553 12.619V17.6667H5.76037C2.96868 17.6667 0.68457 19.9381 0.68457 22.7143V47.9524C0.68457 50.7286 2.96868 53 5.76037 53H36.2152C39.0069 53 41.291 50.7286 41.291 47.9524V22.7143C41.291 19.9381 39.0069 17.6667 36.2152 17.6667ZM36.2152 44.9524C36.2152 46.6092 34.8721 47.9524 33.2152 47.9524H8.76037C7.10352 47.9524 5.76037 46.6092 5.76037 44.9524V25.7143C5.76037 24.0574 7.10352 22.7143 8.76037 22.7143H33.2152C34.8721 22.7143 36.2152 24.0574 36.2152 25.7143V44.9524Z" fill="url(#paint0_linear_909_30)"/>
<rect width="4.54754" height="20.2498" rx="2.27377" transform="matrix(0.732596 -0.680664 0.674029 0.738705 12.5764 29.6814)" fill="url(#paint1_linear_909_30)"/>
<rect width="4.54924" height="20.2422" rx="2.27462" transform="matrix(-0.7039 -0.710299 0.7039 -0.710299 15.5493 44.1953)" fill="url(#paint2_linear_909_30)"/>
<defs>
<linearGradient id="paint0_linear_909_30" x1="43.358" y1="5.80971" x2="5.13674" y2="51.9678" gradientUnits="userSpaceOnUse">
<stop stop-color="#F7EA7D"/>
<stop offset="1" stop-color="#DE9237"/>
</linearGradient>
<linearGradient id="paint1_linear_909_30" x1="0.324824" y1="20.2498" x2="9.2719" y2="18.5853" gradientUnits="userSpaceOnUse">
<stop stop-color="#DE9237"/>
<stop offset="1" stop-color="#F7EA7D"/>
</linearGradient>
<linearGradient id="paint2_linear_909_30" x1="0.324946" y1="20.2422" x2="9.27491" y2="18.576" gradientUnits="userSpaceOnUse">
<stop stop-color="#DE9237"/>
<stop offset="1" stop-color="#F7EA7D"/>
</linearGradient>
</defs>
</svg>
