<svg width="32" height="30" viewBox="0 0 32 30" fill="none" xmlns="http://www.w3.org/2000/svg">
<path d="M18.5948 22V26C18.5948 27.6569 17.2517 29 15.5948 29H4C2.34315 29 1 27.6569 1 26V4C1 2.34315 2.34315 1 4 1H15.5948C17.2517 1 18.5948 2.34315 18.5948 4V8" stroke="#E6E0D2" stroke-width="2" stroke-linecap="round"/>
<path d="M31.1441 15.562L24.3994 20.3463C23.9537 20.6628 23.3437 20.3341 23.3437 19.7741L23.3437 10.2176C23.3437 9.65761 23.9537 9.32891 24.3994 9.64543L31.1441 14.4298C31.5312 14.6854 31.5312 15.2941 31.1441 15.562Z" stroke="#E6E0D2" stroke-miterlimit="10"/>
<path d="M20.9277 16.207L13.9015 16.207C13.2564 16.207 12.7285 15.6592 12.7285 14.9896C12.7285 14.3201 13.2564 13.7722 13.9015 13.7722L25.5258 13.7722" stroke="#E6E0D2" stroke-miterlimit="10" stroke-linecap="round"/>
</svg>
