<svg width="25" height="24" viewBox="0 0 25 24" fill="none" xmlns="http://www.w3.org/2000/svg">
<path fill-rule="evenodd" clip-rule="evenodd" d="M6.25 10.625C5.62868 10.625 5.125 10.1213 5.125 9.5C5.125 8.87868 5.62868 8.375 6.25 8.375L12.25 8.375L18.25 8.375C18.8713 8.375 19.375 8.87868 19.375 9.5C19.375 10.1213 18.8713 10.625 18.25 10.625L12.25 10.625L6.25 10.625ZM6.25 15.625C5.62868 15.625 5.125 15.1213 5.125 14.5C5.125 13.8787 5.62868 13.375 6.25 13.375L12.25 13.375L18.25 13.375C18.8713 13.375 19.375 13.8787 19.375 14.5C19.375 15.1213 18.8713 15.625 18.25 15.625L12.25 15.625L6.25 15.625Z" fill="#D5AD1D"/>
</svg>
