<svg width="66" height="56" viewBox="0 0 66 70" fill="none" xmlns="http://www.w3.org/2000/svg">
<path d="M60.955 25.6736L55.9551 37.0914C55.6249 37.8463 54.5776 38.0306 54.1399 37.4066L46.6702 26.759C46.2325 26.135 46.7659 25.2183 47.5909 25.1687L60.0701 24.4121C60.7715 24.3476 61.2473 25.0258 60.955 25.6736Z" stroke="#F3FEFF" stroke-width="3" stroke-miterlimit="10"/>
<path d="M1.99984 51.8313L22.6028 38.5476L29.8745 44.5857L51.6894 30.985" stroke="#F3FEFF" stroke-width="3" stroke-miterlimit="10" stroke-linecap="round"/>
<path d="M22.4271 22.7015C28.1643 22.7015 32.8152 18.0673 32.8152 12.3508C32.8152 6.63419 28.1643 2 22.4271 2C16.69 2 12.0391 6.63419 12.0391 12.3508C12.0391 18.0673 16.69 22.7015 22.4271 22.7015Z" stroke="#F3FEFF" stroke-width="3" stroke-miterlimit="10" stroke-linecap="round"/>
<path d="M11.8539 21.9021C12.4407 21.3174 12.4424 20.3676 11.8577 19.7808C11.273 19.194 10.3232 19.1923 9.73638 19.777L11.8539 21.9021ZM5.34766 48.7176C5.34766 49.546 6.01923 50.2176 6.84766 50.2176C7.67608 50.2176 8.34766 49.546 8.34766 48.7176H5.34766ZM36.5119 39.0569V40.5569H39.5119V39.0569H36.5119ZM32.6017 17.7535C31.909 17.2992 30.9791 17.4924 30.5248 18.1851C30.0704 18.8779 30.2637 19.8077 30.9564 20.2621L32.6017 17.7535ZM9.73638 19.777C6.99671 22.5068 5.34766 25.9822 5.34766 29.9482H8.34766C8.34766 26.8757 9.60727 24.1407 11.8539 21.9021L9.73638 19.777ZM5.34766 29.9482V48.7176H8.34766V29.9482H5.34766ZM39.5119 39.0569V29.9482H36.5119V39.0569H39.5119ZM39.5119 29.9482C39.5119 24.8465 36.7291 20.4606 32.6017 17.7535L30.9564 20.2621C34.3698 22.5009 36.5119 26.0052 36.5119 29.9482H39.5119Z" fill="#F3FEFF"/>
</svg>
