<svg width="20" height="20" viewBox="0 0 20 20" fill="none" xmlns="http://www.w3.org/2000/svg">
<path d="M4.66691 10L1.99554 17.8797C1.95595 17.9845 1.94779 18.0982 1.97202 18.2074C1.99626 18.3166 2.05187 18.4167 2.13226 18.4957C2.21264 18.5748 2.31441 18.6295 2.42547 18.6533C2.53654 18.6771 2.65222 18.6691 2.75878 18.6302L17.125 11.0834L17.3481 10.9662L17.5711 10.849L17.7942 10.7319C17.7942 10.7319 18.2084 10.5417 18.2084 10C18.2084 9.45837 17.7942 9.26823 17.7942 9.26823L17.5711 9.15105L17.3481 9.03388L17.125 8.91671L2.75878 1.36991C2.65222 1.33099 2.53654 1.32296 2.42547 1.34679C2.31441 1.37062 2.21264 1.42531 2.13226 1.50434C2.05187 1.58337 1.99626 1.68344 1.97202 1.79264C1.94779 1.90184 1.95595 2.01558 1.99554 2.12036L4.66691 10ZM4.66691 10H10.0834" stroke="white" stroke-width="2" stroke-linecap="round" stroke-linejoin="round"/>
</svg>
