<svg width="34" height="34" viewBox="0 0 34 34" fill="none" xmlns="http://www.w3.org/2000/svg">
<path d="M12.9943 25.0034C19.6186 25.0034 24.9887 19.6301 24.9887 13.0017C24.9887 6.37335 19.6186 1 12.9943 1C6.37005 1 1 6.37335 1 13.0017C1 19.6301 6.37005 25.0034 12.9943 25.0034Z" stroke="#E6E0D2" stroke-width="2" stroke-miterlimit="10" stroke-linecap="round"/>
<path d="M18.1316 20.2952C16.7415 21.1098 15.0926 21.5754 13.3145 21.5754C8.40039 21.5754 4.42383 17.9967 4.42383 13.5742" stroke="#E6E0D2" stroke-width="2" stroke-miterlimit="10" stroke-linecap="round"/>
<path d="M23.5894 21.1211L32.4944 30.0315C33.1685 30.706 33.1685 31.8189 32.4944 32.4934C32.1574 32.8307 31.7192 32.9993 31.2642 32.9993C30.8092 32.9993 30.3711 32.8307 30.034 32.4934L22.5723 25.0271" stroke="#E6E0D2" stroke-width="2" stroke-miterlimit="10" stroke-linecap="round"/>
</svg>
