<svg width="64" height="48" viewBox="0 0 64 48" fill="none" xmlns="http://www.w3.org/2000/svg">
<path d="M46.5471 22.8294C52.2372 22.8294 56.85 18.1666 56.85 12.4147C56.85 6.66282 52.2372 2 46.5471 2C40.8569 2 36.2441 6.66282 36.2441 12.4147C36.2441 18.1666 40.8569 22.8294 46.5471 22.8294Z" stroke="#F3FEFF" stroke-width="3" stroke-miterlimit="10" stroke-linecap="round"/>
<path d="M55.817 19.1123C59.5565 21.6005 61.9987 25.57 61.9987 30.1203V39.2852C61.9987 40.535 61.1745 41.3682 59.9382 41.3682H41.0898" stroke="#F3FEFF" stroke-width="3" stroke-miterlimit="10" stroke-linecap="round"/>
<path d="M19.2748 25.2799C25.6344 25.2799 30.7899 20.0685 30.7899 13.64C30.7899 7.21139 25.6344 2 19.2748 2C12.9152 2 7.75977 7.21139 7.75977 13.64C7.75977 20.0685 12.9152 25.2799 19.2748 25.2799Z" stroke="#F3FEFF" stroke-width="3" stroke-miterlimit="10" stroke-linecap="round"/>
<path d="M6.37572 23.1859C3.61211 25.9795 2 29.4714 2 33.429V43.6722C2 45.069 2.9212 46.0002 4.30301 46.0002H34.2421C35.6239 46.0002 36.5451 45.069 36.5451 43.6722V33.429C36.5451 28.3434 33.8155 23.907 29.6361 21.126" stroke="#F3FEFF" stroke-width="3" stroke-miterlimit="10" stroke-linecap="round"/>
</svg>
