<svg width="15" height="12" viewBox="0 0 15 12" fill="none" xmlns="http://www.w3.org/2000/svg">
<path fill-rule="evenodd" clip-rule="evenodd" d="M0.625838 9.56388C0.108868 9.90853 -0.0308277 10.607 0.313819 11.124C0.658465 11.6409 1.35694 11.7806 1.87391 11.436L7.24988 7.85202L12.6258 11.436C13.1428 11.7806 13.8413 11.6409 14.1859 11.124C14.5306 10.607 14.3909 9.90853 13.8739 9.56388L7.87391 5.56388C7.49603 5.31196 7.00372 5.31196 6.62584 5.56388L0.625838 9.56388ZM0.625837 4.5639C0.108868 4.90854 -0.0308279 5.60702 0.313819 6.12399C0.658465 6.64096 1.35694 6.78066 1.87391 6.43601L7.24988 2.85204L12.6258 6.43601C13.1428 6.78066 13.8413 6.64096 14.1859 6.12399C14.5306 5.60702 14.3909 4.90854 13.8739 4.5639L7.87391 0.563897C7.49603 0.311972 7.00372 0.311972 6.62584 0.563897L0.625837 4.5639Z" fill="#C06932"/>
</svg>
