<svg width="15" height="8" viewBox="0 0 15 8" fill="none" xmlns="http://www.w3.org/2000/svg">
<path fill-rule="evenodd" clip-rule="evenodd" d="M1.25 2.625C0.62868 2.625 0.125 2.12132 0.125 1.5C0.125 0.87868 0.62868 0.375 1.25 0.375L7.25 0.375L13.25 0.375C13.8713 0.375 14.375 0.878679 14.375 1.5C14.375 2.12132 13.8713 2.625 13.25 2.625L7.25 2.625L1.25 2.625ZM1.25 7.62499C0.62868 7.62499 0.125 7.12131 0.125 6.49999C0.125 5.87867 0.62868 5.37499 1.25 5.37499L7.25 5.37499L13.25 5.37499C13.8713 5.37499 14.375 5.87867 14.375 6.49999C14.375 7.12131 13.8713 7.62499 13.25 7.62499L7.25 7.62499L1.25 7.62499Z" fill="#D5AD1D"/>
</svg>
